<svg xmlns="http://www.w3.org/2000/svg" width="45.27" height="45.271" viewBox="0 0 45.27 45.271">
  <g id="Group_1374" data-name="Group 1374" transform="translate(-2557.952 -8516.417)">
    <g id="Group_402" data-name="Group 402">
      <g id="Group_401" data-name="Group 401">
        <path id="Path_300" data-name="Path 300" d="M2580.587,8561.688a22.636,22.636,0,1,1,22.635-22.637A22.661,22.661,0,0,1,2580.587,8561.688Zm0-44.036a21.4,21.4,0,1,0,21.4,21.4A21.424,21.424,0,0,0,2580.587,8517.652Z" fill="#0d0d0d"/>
      </g>
    </g>
    <g id="Group_405" data-name="Group 405">
      <g id="Group_403" data-name="Group 403">
        <path id="Path_301" data-name="Path 301" d="M2581.269,8551.182h-1.364a4.87,4.87,0,0,1-4.866-4.865h1.235a3.635,3.635,0,0,0,3.631,3.631h1.364a3.634,3.634,0,0,0,3.63-3.631V8543.3a3.633,3.633,0,0,0-3.63-3.63h-1.364a4.871,4.871,0,0,1-4.866-4.866v-3.016a4.871,4.871,0,0,1,4.866-4.867h1.364a4.871,4.871,0,0,1,4.865,4.867H2584.9a3.634,3.634,0,0,0-3.63-3.631h-1.364a3.634,3.634,0,0,0-3.631,3.631v3.016a3.635,3.635,0,0,0,3.631,3.631h1.364a4.87,4.87,0,0,1,4.865,4.865v3.017A4.87,4.87,0,0,1,2581.269,8551.182Z" fill="#0d0d0d"/>
      </g>
      <g id="Group_404" data-name="Group 404">
        <rect id="Rectangle_161" data-name="Rectangle 161" width="1.235" height="29.581" transform="translate(2579.969 8524.261)" fill="#0d0d0d"/>
      </g>
    </g>
  </g>
</svg>
