<svg xmlns="http://www.w3.org/2000/svg" width="61.495" height="53.621" viewBox="0 0 61.495 53.621">
  <g id="Group_1364" data-name="Group 1364" transform="translate(-5892.03 -13372.292)">
    <g id="Group_296" data-name="Group 296">
      <g id="Group_293" data-name="Group 293">
        <path id="Path_236" data-name="Path 236" d="M5908.511,13399.013a4.094,4.094,0,1,1,4.093-4.094A4.1,4.1,0,0,1,5908.511,13399.013Zm0-6.687a2.594,2.594,0,1,0,2.593,2.594A2.6,2.6,0,0,0,5908.511,13392.325Z" fill="#0d0d0d"/>
      </g>
      <g id="Group_294" data-name="Group 294">
        <path id="Path_237" data-name="Path 237" d="M5922.777,13399.013a4.094,4.094,0,1,1,4.094-4.094A4.1,4.1,0,0,1,5922.777,13399.013Zm0-6.687a2.594,2.594,0,1,0,2.594,2.594A2.6,2.6,0,0,0,5922.777,13392.325Z" fill="#0d0d0d"/>
      </g>
      <g id="Group_295" data-name="Group 295">
        <path id="Path_238" data-name="Path 238" d="M5937.044,13399.013a4.094,4.094,0,1,1,4.094-4.094A4.1,4.1,0,0,1,5937.044,13399.013Zm0-6.687a2.594,2.594,0,1,0,2.594,2.594A2.6,2.6,0,0,0,5937.044,13392.325Z" fill="#0d0d0d"/>
      </g>
    </g>
    <g id="Group_297" data-name="Group 297">
      <path id="Path_239" data-name="Path 239" d="M5952.775,13425.913a.754.754,0,0,1-.42-.128l-12.2-8.238h-43.716a4.418,4.418,0,0,1-4.412-4.413v-36.43a4.418,4.418,0,0,1,4.412-4.412h52.671a4.417,4.417,0,0,1,4.412,4.412v48.459a.75.75,0,0,1-.75.75Zm-56.333-52.121a2.915,2.915,0,0,0-2.912,2.912v36.43a2.916,2.916,0,0,0,2.912,2.913h43.946a.75.75,0,0,1,.42.128l11.217,7.577V13376.7a2.915,2.915,0,0,0-2.912-2.912Z" fill="#0d0d0d"/>
    </g>
  </g>
</svg>
