<svg id="Group_1277" data-name="Group 1277" xmlns="http://www.w3.org/2000/svg" width="22.621" height="22.621" viewBox="0 0 22.621 22.621">
  <g id="Group_1275" data-name="Group 1275">
    <path id="Path_1148" data-name="Path 1148" d="M452.634,4175.061a11.311,11.311,0,1,1,11.31-11.31A11.324,11.324,0,0,1,452.634,4175.061Zm0-21.73a10.419,10.419,0,1,0,10.419,10.42A10.431,10.431,0,0,0,452.634,4153.331Z" transform="translate(-441.323 -4152.44)" fill="#0d0d0d"/>
  </g>
  <g id="Group_1276" data-name="Group 1276" transform="translate(4.845 6.84)">
    <path id="Path_1149" data-name="Path 1149" d="M450.473,4168.352a.447.447,0,0,1-.315-.13l-3.99-3.99.63-.63,3.675,3.675,8-8,.63.63-8.311,8.312A.448.448,0,0,1,450.473,4168.352Z" transform="translate(-446.168 -4159.28)" fill="#0d0d0d"/>
  </g>
</svg>
