<svg xmlns="http://www.w3.org/2000/svg" width="47.345" height="44.476" viewBox="0 0 47.345 44.476">
  <g id="Group_635" data-name="Group 635" transform="translate(-4639.655 -8065.066)">
    <g id="Group_630" data-name="Group 630">
      <path id="Path_450" data-name="Path 450" d="M4681.532,8109.542h-36.408c-3.016,0-5.469-2.894-5.469-6.452v-31.573c0-3.557,2.453-6.451,5.469-6.451h36.408c3.015,0,5.468,2.894,5.468,6.451v31.573C4687,8106.648,4684.547,8109.542,4681.532,8109.542Zm-36.408-43.168c-2.294,0-4.161,2.307-4.161,5.143v31.573c0,2.836,1.867,5.143,4.161,5.143h36.408c2.294,0,4.16-2.307,4.16-5.143v-31.573c0-2.836-1.866-5.143-4.16-5.143Z" fill="#0d0d0d"/>
    </g>
    <g id="Group_634" data-name="Group 634">
      <g id="Group_631" data-name="Group 631">
        <rect id="Rectangle_249" data-name="Rectangle 249" width="30.721" height="1.402" transform="translate(4647.967 8074.609)" fill="#0d0d0d"/>
      </g>
      <g id="Group_632" data-name="Group 632">
        <rect id="Rectangle_250" data-name="Rectangle 250" width="30.721" height="1.402" transform="translate(4647.967 8086.603)" fill="#0d0d0d"/>
      </g>
      <g id="Group_633" data-name="Group 633">
        <rect id="Rectangle_251" data-name="Rectangle 251" width="30.721" height="1.402" transform="translate(4647.967 8098.596)" fill="#0d0d0d"/>
      </g>
    </g>
  </g>
</svg>
