<svg xmlns="http://www.w3.org/2000/svg" width="50.752" height="43.332" viewBox="0 0 50.752 43.332">
  <g id="Group_572" data-name="Group 572" transform="translate(-4637.952 -7378.281)">
    <g id="Group_560" data-name="Group 560">
      <path id="Path_416" data-name="Path 416" d="M4669.128,7387.535a4.627,4.627,0,1,1,4.627-4.627A4.632,4.632,0,0,1,4669.128,7387.535Zm0-8.289a3.662,3.662,0,1,0,3.662,3.662A3.667,3.667,0,0,0,4669.128,7379.246Z" fill="#0d0d0d"/>
    </g>
    <g id="Group_563" data-name="Group 563">
      <g id="Group_561" data-name="Group 561">
        <line id="Line_35" data-name="Line 35" y2="4.486" transform="translate(4669.128 7380.665)" fill="#fff"/>
        <rect id="Rectangle_221" data-name="Rectangle 221" width="0.965" height="4.486" transform="translate(4668.646 7380.665)" fill="#0d0d0d"/>
      </g>
      <g id="Group_562" data-name="Group 562">
        <line id="Line_36" data-name="Line 36" x1="4.486" transform="translate(4666.885 7382.908)" fill="#fff"/>
        <rect id="Rectangle_222" data-name="Rectangle 222" width="4.486" height="0.965" transform="translate(4666.885 7382.425)" fill="#0d0d0d"/>
      </g>
    </g>
    <g id="Group_564" data-name="Group 564">
      <path id="Path_417" data-name="Path 417" d="M4648.514,7421.613a5.394,5.394,0,1,1,5.4-5.394A5.4,5.4,0,0,1,4648.514,7421.613Zm0-9.824a4.429,4.429,0,1,0,4.43,4.43A4.434,4.434,0,0,0,4648.514,7411.789Z" fill="#0d0d0d"/>
    </g>
    <g id="Group_565" data-name="Group 565">
      <path id="Path_418" data-name="Path 418" d="M4674.967,7421.613a5.394,5.394,0,1,1,5.4-5.394A5.4,5.4,0,0,1,4674.967,7421.613Zm0-9.824a4.429,4.429,0,1,0,4.43,4.43A4.434,4.434,0,0,0,4674.967,7411.789Z" fill="#0d0d0d"/>
    </g>
    <g id="Group_566" data-name="Group 566">
      <rect id="Rectangle_223" data-name="Rectangle 223" width="16.629" height="0.965" transform="translate(4653.426 7416.06)" fill="#0d0d0d"/>
    </g>
    <g id="Group_569" data-name="Group 569">
      <g id="Group_567" data-name="Group 567">
        <path id="Path_419" data-name="Path 419" d="M4660.285,7392.96a4.219,4.219,0,1,1,4.218-4.219A4.224,4.224,0,0,1,4660.285,7392.96Zm0-7.472a3.254,3.254,0,1,0,3.252,3.253A3.258,3.258,0,0,0,4660.285,7385.488Z" fill="#0d0d0d"/>
      </g>
      <g id="Group_568" data-name="Group 568">
        <path id="Path_420" data-name="Path 420" d="M4665.638,7398.314h-10.71a.483.483,0,0,1-.483-.482,5.838,5.838,0,0,1,11.676,0A.483.483,0,0,1,4665.638,7398.314Zm-10.2-.965h9.7a4.873,4.873,0,0,0-9.7,0Z" fill="#0d0d0d"/>
      </g>
    </g>
    <g id="Group_570" data-name="Group 570">
      <path id="Path_421" data-name="Path 421" d="M4660.283,7404.028a12.251,12.251,0,0,1,0-24.5,12.135,12.135,0,0,1,5.313,1.224.483.483,0,0,1,.229.636,3.629,3.629,0,0,0-.335,1.522,3.656,3.656,0,0,0,5.185,3.327.483.483,0,0,1,.635.229,12.124,12.124,0,0,1,1.224,5.313A12.264,12.264,0,0,1,4660.283,7404.028Zm0-23.537a11.286,11.286,0,1,0,11.286,11.286,11.136,11.136,0,0,0-.941-4.486,4.556,4.556,0,0,1-1.476.244,4.633,4.633,0,0,1-4.627-4.627,4.565,4.565,0,0,1,.244-1.476A11.132,11.132,0,0,0,4660.283,7380.491Z" fill="#0d0d0d"/>
    </g>
    <g id="Group_571" data-name="Group 571">
      <path id="Path_422" data-name="Path 422" d="M4686.507,7417.025h-6.627a.5.5,0,0,1-.361-.153.491.491,0,0,1-.137-.362c.009-.135.015-.212.015-.291a4.429,4.429,0,1,0-8.859,0c0,.079.006.156.011.234a.545.545,0,0,1-.126.391.507.507,0,0,1-.351.181H4653.41a.481.481,0,0,1-.481-.513l0-.071c.006-.074.011-.147.011-.222a4.429,4.429,0,1,0-8.859,0c0,.077,0,.152.011.228a.559.559,0,0,1-.126.394.513.513,0,0,1-.351.184h-3.445a2.223,2.223,0,0,1-2.222-2.222v-6.754a2.224,2.224,0,0,1,2.222-2.223h4.317l6.443-5.829a3.731,3.731,0,0,1,.651-.465.48.48,0,0,1,.588.083,11.272,11.272,0,0,0,16.063.168.484.484,0,0,1,.62-.052l.056.038a1.563,1.563,0,0,1,.165.118l6.729,5.558a2.317,2.317,0,0,0,1.124.5l9.907,1.5h0a2.183,2.183,0,0,1,1.867,2.172v5.2A2.2,2.2,0,0,1,4686.507,7417.025Zm-6.147-.965h6.147a1.233,1.233,0,0,0,1.232-1.231v-5.2a1.225,1.225,0,0,0-1.047-1.218l-9.906-1.505a3.275,3.275,0,0,1-1.6-.713l-6.576-5.432a12.237,12.237,0,0,1-16.855-.19c-.065.047-.124.1-.179.145l-6.58,5.955a.486.486,0,0,1-.324.125h-4.5a1.258,1.258,0,0,0-1.257,1.257v6.754a1.258,1.258,0,0,0,1.257,1.257h2.948a5.395,5.395,0,0,1,10.785,0h15.668a5.395,5.395,0,0,1,10.785,0Z" fill="#0d0d0d"/>
    </g>
  </g>
</svg>
