<svg id="Group_1270" data-name="Group 1270" xmlns="http://www.w3.org/2000/svg" width="34.506" height="25.393" viewBox="0 0 34.506 25.393">
  <path id="Path_1142" data-name="Path 1142" d="M1404.227,6018.977h-28.885a2.814,2.814,0,0,0-2.811,2.811v19.772a2.814,2.814,0,0,0,2.811,2.81h28.885a2.814,2.814,0,0,0,2.81-2.81v-19.772A2.814,2.814,0,0,0,1404.227,6018.977Zm0,.841a1.95,1.95,0,0,1,1.053.312l-15.5,11.027-15.5-11.027a1.954,1.954,0,0,1,1.054-.312Zm1.969,21.742a1.971,1.971,0,0,1-1.969,1.968h-28.885a1.971,1.971,0,0,1-1.97-1.968v-19.772a1.956,1.956,0,0,1,.312-1.055l15.856,11.284a.42.42,0,0,0,.488,0l15.856-11.284a1.956,1.956,0,0,1,.312,1.055Z" transform="translate(-1372.531 -6018.977)" fill="#fff"/>
</svg>
