<svg id="Group_1271" data-name="Group 1271" xmlns="http://www.w3.org/2000/svg" width="30.454" height="30.455" viewBox="0 0 30.454 30.455">
  <path id="Path_1143" data-name="Path 1143" d="M1470.3,6016.446a15.228,15.228,0,1,0,15.227,15.228A15.245,15.245,0,0,0,1470.3,6016.446Zm0,29.624a14.4,14.4,0,1,1,14.4-14.4A14.412,14.412,0,0,1,1470.3,6046.07Z" transform="translate(-1455.077 -6016.446)" fill="#fff"/>
  <path id="Path_1144" data-name="Path 1144" d="M1470.763,6022.657h-.918a3.276,3.276,0,0,0-3.273,3.273h.831a2.445,2.445,0,0,1,2.442-2.442h.918a2.444,2.444,0,0,1,2.442,2.442v3.931a2.444,2.444,0,0,1-2.442,2.442h-.918a.416.416,0,0,0-.415.416v3.357h.831v-2.942h.5a3.276,3.276,0,0,0,3.273-3.273v-3.931A3.276,3.276,0,0,0,1470.763,6022.657Z" transform="translate(-1455.077 -6016.446)" fill="#fff"/>
  <path id="Path_1145" data-name="Path 1145" d="M1469.8,6038.06a1.315,1.315,0,1,0,1.316,1.315A1.316,1.316,0,0,0,1469.8,6038.06Zm0,1.8a.484.484,0,1,1,.485-.484A.484.484,0,0,1,1469.8,6039.859Z" transform="translate(-1455.077 -6016.446)" fill="#fff"/>
</svg>
