<svg id="Group_1324" data-name="Group 1324" xmlns="http://www.w3.org/2000/svg" width="29.904" height="28.699" viewBox="0 0 29.904 28.699">
  <g id="Group_1321" data-name="Group 1321">
    <path id="Path_1176" data-name="Path 1176" d="M1240.536,6046.023h-23c-1.9,0-3.454-1.828-3.454-4.074V6021.4c0-2.246,1.549-4.074,3.454-4.074h23c1.9,0,3.453,1.828,3.453,4.074v20.551C1243.989,6044.195,1242.44,6046.023,1240.536,6046.023Zm-23-27.873c-1.449,0-2.628,1.457-2.628,3.248v20.551c0,1.79,1.179,3.248,2.628,3.248h23c1.448,0,2.627-1.458,2.627-3.248V6021.4c0-1.791-1.179-3.248-2.627-3.248Z" transform="translate(-1214.085 -6017.324)" fill="#fff"/>
  </g>
  <g id="Group_1322" data-name="Group 1322" transform="translate(8.413 8.114)">
    <path id="Path_1177" data-name="Path 1177" d="M1229.037,6038.516a6.539,6.539,0,1,1,6.539-6.539A6.547,6.547,0,0,1,1229.037,6038.516Zm0-12.252a5.712,5.712,0,1,0,5.713,5.713A5.719,5.719,0,0,0,1229.037,6026.264Z" transform="translate(-1222.498 -6025.438)" fill="#fff"/>
  </g>
  <g id="Group_1323" data-name="Group 1323" transform="translate(20.303 3.293)">
    <path id="Path_1178" data-name="Path 1178" d="M1237.195,6026.231a2.807,2.807,0,1,1,2.807-2.807A2.81,2.81,0,0,1,1237.195,6026.231Zm0-4.788a1.981,1.981,0,1,0,1.981,1.981A1.984,1.984,0,0,0,1237.195,6021.443Z" transform="translate(-1234.388 -6020.617)" fill="#fff"/>
  </g>
</svg>
