<svg xmlns="http://www.w3.org/2000/svg" width="41.025" height="53.421" viewBox="0 0 41.025 53.421">
  <g id="Group_413" data-name="Group 413" transform="translate(-2559.593 -7831.27)">
    <g id="Group_411" data-name="Group 411">
      <path id="Path_302" data-name="Path 302" d="M2580.106,7884.691a.75.75,0,0,1-.425-.132c-.82-.564-20.088-14.032-20.088-32.777a20.512,20.512,0,0,1,41.025,0c0,18.745-19.267,32.213-20.087,32.777A.751.751,0,0,1,2580.106,7884.691Zm0-51.921a19.034,19.034,0,0,0-19.013,19.012c0,16.449,16.162,29.127,19.013,31.234,2.85-2.107,19.012-14.785,19.012-31.234A19.034,19.034,0,0,0,2580.106,7832.77Z" fill="#0d0d0d"/>
    </g>
    <g id="Group_412" data-name="Group 412">
      <path id="Path_303" data-name="Path 303" d="M2580.106,7860.035a8.89,8.89,0,1,1,8.889-8.89A8.9,8.9,0,0,1,2580.106,7860.035Zm0-16.28a7.39,7.39,0,1,0,7.389,7.39A7.4,7.4,0,0,0,2580.106,7843.755Z" fill="#0d0d0d"/>
    </g>
  </g>
</svg>
