<svg id="Group_1269" data-name="Group 1269" xmlns="http://www.w3.org/2000/svg" width="30.455" height="30.455" viewBox="0 0 30.455 30.455">
  <path id="Path_1140" data-name="Path 1140" d="M1308.913,6016.446a15.228,15.228,0,1,0,15.228,15.227A15.244,15.244,0,0,0,1308.913,6016.446Zm0,29.592a14.365,14.365,0,1,1,14.365-14.365A14.381,14.381,0,0,1,1308.913,6046.038Z" transform="translate(-1293.686 -6016.446)" fill="#fff"/>
  <path id="Path_1141" data-name="Path 1141" d="M1312.183,6033.38a1.3,1.3,0,0,0-1.494.9.986.986,0,0,1-.2.337h0s-.388.166-1.822-1.13c-.885-.8-2.372-2.839-2.4-3.653,0-.137.064-.205.527-.389.394-.158.934-.373,1.06-.961a12.611,12.611,0,0,0-.9-4,1.557,1.557,0,0,0-1.218-.622,3.845,3.845,0,0,0-3.933,4.86c.625,3.877,5.041,8.612,7.688,10.043a5.885,5.885,0,0,0,2.762.734,4.219,4.219,0,0,0,1.411-.232,3.548,3.548,0,0,0,2.112-2.068,2.142,2.142,0,0,0,.024-2.136A10.738,10.738,0,0,0,1312.183,6033.38Zm2.8,3.487a2.675,2.675,0,0,1-1.6,1.583,4.422,4.422,0,0,1-3.472-.448c-2.527-1.366-6.683-5.924-7.247-9.421a3.407,3.407,0,0,1,.786-3.033,3.465,3.465,0,0,1,2.106-.834,1.185,1.185,0,0,1,.126.005.721.721,0,0,1,.57.25,15.367,15.367,0,0,1,.764,3.334c-.027.128-.23.218-.536.34-.436.174-1.094.437-1.069,1.218.04,1.251,1.9,3.557,2.681,4.266.893.807,2.171,1.8,2.953,1.152a1.672,1.672,0,0,0,.435-.645c.151-.336.2-.437.624-.4a12.18,12.18,0,0,1,3.03,1.358C1315.348,6035.87,1315.178,6036.392,1314.983,6036.867Z" transform="translate(-1293.686 -6016.446)" fill="#fff"/>
</svg>
