<svg xmlns="http://www.w3.org/2000/svg" width="172.18" height="172.18" viewBox="0 0 172.18 172.18">
  <g id="Group_197" data-name="Group 197" transform="translate(-9163.688 -7363.344)">
    <g id="Group_194" data-name="Group 194">
      <g id="Group_193" data-name="Group 193">
        <path id="Path_117" data-name="Path 117" d="M9249.776,7535.524a86.09,86.09,0,1,1,86.092-86.09A86.187,86.187,0,0,1,9249.776,7535.524Zm0-165.4a79.308,79.308,0,1,0,79.31,79.308A79.4,79.4,0,0,0,9249.776,7370.126Z" fill="#0d0d0d"/>
      </g>
    </g>
    <g id="Group_196" data-name="Group 196">
      <g id="Group_195" data-name="Group 195">
        <path id="Path_118" data-name="Path 118" d="M9233.329,7484.456a3.381,3.381,0,0,1-2.4-.994l-30.366-30.366,4.794-4.794,27.971,27.968,60.864-60.864,4.795,4.8-63.263,63.261A3.373,3.373,0,0,1,9233.329,7484.456Z" fill="#0d0d0d"/>
      </g>
    </g>
  </g>
</svg>
