<svg xmlns="http://www.w3.org/2000/svg" width="20.624" height="20.624" viewBox="0 0 20.624 20.624">
  <g id="Group_1326" data-name="Group 1326" transform="translate(0 0)">
    <g id="Group_1312" data-name="Group 1312">
      <g id="Group_1311" data-name="Group 1311">
        <path id="Path_1170" data-name="Path 1170" d="M1344.174,1067.334a10.312,10.312,0,1,1,10.312-10.312A10.324,10.324,0,0,1,1344.174,1067.334Zm0-20.061a9.749,9.749,0,1,0,9.749,9.749A9.76,9.76,0,0,0,1344.174,1047.273Z" transform="translate(-1333.862 -1046.71)" fill="#fff"/>
      </g>
    </g>
    <g id="Group_1316" data-name="Group 1316" transform="translate(5.466 4.259)">
      <g id="Group_1315" data-name="Group 1315">
        <g id="Group_1313" data-name="Group 1313" transform="translate(1.382)">
          <path id="Path_1171" data-name="Path 1171" d="M1344.175,1057.9a3.466,3.466,0,1,1,3.465-3.465A3.469,3.469,0,0,1,1344.175,1057.9Zm0-6.368a2.9,2.9,0,1,0,2.9,2.9A2.906,2.906,0,0,0,1344.175,1051.532Z" transform="translate(-1340.71 -1050.969)" fill="#fff"/>
        </g>
        <g id="Group_1314" data-name="Group 1314" transform="translate(0 6.369)">
          <path id="Path_1172" data-name="Path 1172" d="M1348.738,1062.464h-9.128a.282.282,0,0,1-.282-.282,4.846,4.846,0,0,1,9.692,0A.282.282,0,0,1,1348.738,1062.464Zm-8.838-.563h8.548a4.283,4.283,0,0,0-8.548,0Z" transform="translate(-1339.328 -1057.338)" fill="#fff"/>
        </g>
      </g>
    </g>
  </g>
</svg>
